<svg width="114.434" height="20.5756" viewBox="0 0 114.434 20.5756" fill="none" xmlns="http://www.w3.org/2000/svg">
<g id="Group 1000002135">
<path id="Bela Autom&#195;&#179;veis" fill-rule="evenodd" clip-rule="evenodd" d="M7.05777 0.125888C7.0587 0.197268 7.09316 0.302498 7.13447 0.359664C7.18939 0.435646 8.70188 1.69636 8.97881 1.8969C8.99568 1.90917 8.33403 3.15557 7.50856 4.66663C4.75141 9.71348 4.6019 10.0096 4.6019 10.4238C4.6019 11.2079 3.51074 11.1456 17.3544 11.1512L29.7335 11.1562L30.3114 10.8827C31.0823 10.5176 32.1252 9.39994 32.4133 8.62989C32.7972 7.60387 32.6133 6.78514 31.9019 6.35256C31.6488 6.19865 31.6208 6.14967 31.7558 6.09782C31.8479 6.06254 32.0732 6.0336 32.2564 6.0336C32.7177 6.0336 33.8004 5.47074 34.1035 5.07334C34.8751 4.06174 34.9947 3.05801 34.4625 2.0596C34.0468 1.27963 33.516 0.789481 32.6349 0.372038L31.9576 0.0511322L19.5069 0.0236234C9.49811 0.00143199 7.05655 0.0214758 7.05777 0.125888ZM35.2812 0.152067C35.2812 0.281329 35.7591 0.712681 37.0126 1.71477L37.2611 1.91347L35.5415 5.02169C34.5956 6.73125 33.6256 8.48334 33.3858 8.9151C32.8001 9.97016 32.6892 10.3246 32.8297 10.6941C33.0092 11.1662 33.1328 11.2743 33.3198 11.1225C33.4544 11.0133 33.4683 11.0212 33.4108 11.1747C33.3537 11.3268 33.374 11.3394 33.5361 11.2527C33.8081 11.107 58.7282 11.1203 58.6382 11.2661C58.594 11.3375 58.6347 11.3396 58.7641 11.2726C58.8693 11.218 59.0431 11.1874 59.1504 11.2045C59.6016 11.2766 58.9294 10.8283 58.2124 10.5789C56.8059 10.0898 55.8458 10.0258 49.8794 10.0238C45.4398 10.0223 44.3827 9.99634 44.3827 9.88907C44.3827 9.81595 44.7164 9.18314 45.1243 8.48293L45.8658 7.20964L51.4391 7.15534C56.4522 7.10645 57.0601 7.08263 57.4878 6.9191C58.3344 6.59534 58.4822 6.23097 57.9173 5.86057C57.6557 5.68907 57.2428 5.67352 52.2361 5.64581C48.097 5.62301 46.8383 5.58721 46.8422 5.49241C46.8449 5.42451 47.1636 4.79364 47.5503 4.09057L48.2533 2.81227L54.3203 2.76114C60.9835 2.70499 60.8483 2.71768 61.8188 2.05899C62.4081 1.65893 62.4131 1.36165 61.8378 0.890313C61.5894 0.686807 61.166 0.403229 60.897 0.260161L60.4078 0L47.8445 0C36.7933 0 35.2812 0.0183053 35.2812 0.152067ZM62.6035 0.169759C62.6339 0.328064 63.3133 0.954127 64.2072 1.64768L64.5504 1.91398L63.0449 4.71521C62.217 6.25582 61.276 8.00014 60.9538 8.59123C60.1413 10.0821 60.066 10.3367 60.3022 10.7954L60.4894 11.1587L71.2078 11.155C77.1029 11.1528 81.9662 11.1265 82.0152 11.0962C82.0641 11.0659 82.1313 11.0851 82.1644 11.1386C82.1974 11.1922 82.3042 11.2325 82.4015 11.2281C82.656 11.2167 82.8738 11.2847 82.9604 11.4025C83.0082 11.4675 83.0361 11.4621 83.0371 11.3875C83.0399 11.1758 82.3512 10.6613 81.8464 10.4981C80.5574 10.0814 79.7783 10.0219 75.6132 10.0219C73.3977 10.0219 71.585 10.0025 71.585 9.97865C71.585 9.95482 71.8799 9.40843 72.2403 8.76436C72.8949 7.59446 73.4061 6.66488 75.035 3.68152C75.6261 2.59905 75.9006 1.98935 75.9006 1.75874C75.9006 1.39519 75.5691 0.843682 75.0534 0.349643L74.7419 0.0511322L68.6559 0.0232145C62.9657 -0.00296516 62.5721 0.00664756 62.6035 0.169759ZM86.2787 0.193791C86.3184 0.345756 87.5955 1.46187 88.1721 1.84863C88.2205 1.88115 87.8397 2.66348 87.3258 3.58713C84.4234 8.80363 83.7545 10.0816 83.7545 10.41C83.7545 10.7878 84.1505 11.3318 84.2785 11.1298C84.3261 11.0548 84.3656 11.0394 84.3666 11.0957C84.3676 11.1615 85.3564 11.1942 87.1463 11.1874L89.9244 11.1769L90.7511 9.68597C91.2057 8.86591 91.7042 7.96169 91.859 7.67668L92.1401 7.15851H97.9693C101.824 7.15851 103.798 7.19348 103.798 7.26179C103.798 7.31855 103.597 7.74418 103.352 8.20774C101.789 11.1575 101.756 11.2282 101.915 11.2894C102.003 11.3233 102.044 11.3054 102.008 11.248C101.952 11.1576 102.171 11.0967 102.403 11.1381C102.45 11.1467 104.205 11.1637 106.301 11.1759C109.631 11.1952 110.108 11.2173 110.073 11.3513C110.051 11.4357 110.092 11.3849 110.163 11.2384C110.234 11.0919 110.344 10.9078 110.407 10.8294C110.47 10.7508 110.878 9.9043 111.314 8.94813C111.751 7.99196 112.497 6.35829 112.973 5.31775C114.281 2.45557 114.434 2.08292 114.434 1.74443C114.434 1.29978 113.859 0.706749 113.08 0.346881L112.44 0.0511322L99.3334 0.0237248C86.4256 -0.00337527 86.2278 -0.000817678 86.2787 0.193791ZM93.704 4.21585L92.9712 5.57341L98.3449 5.5999C101.812 5.61697 103.858 5.58885 104.112 5.52054C104.634 5.37982 105.029 5.03243 105.35 4.43142C105.734 3.71025 105.776 3.43966 105.545 3.15516L105.35 2.91453L99.8936 2.88641L94.4367 2.85829L93.704 4.21585ZM14.9578 3.50255C14.8134 3.68684 14.1125 4.96698 14.1125 5.04634C14.1125 5.16476 26.3424 5.12406 26.6567 5.00451C27.0051 4.87208 27.0965 4.73975 27.0985 4.36505C27.1007 3.9697 26.944 3.71179 26.5908 3.52914C26.335 3.39692 25.4851 3.37472 20.675 3.37472C16.3029 3.37472 15.0357 3.40305 14.9578 3.50255ZM13.5251 6.63103C13.3203 6.75753 12.5692 8.21275 12.6611 8.30469C12.7091 8.35265 15.5287 8.37893 18.9271 8.36318C25.926 8.33076 25.5191 8.38036 26.0832 7.49076C26.4624 6.89282 26.467 6.68748 26.103 6.61518C25.6783 6.53091 13.6626 6.54604 13.5251 6.63103ZM70.9844 12.8752C67.8373 13.3804 67.699 13.4247 67.699 13.9275C67.699 14.1017 67.8717 14.1125 70.6672 14.1125H73.6354L73.9908 13.3327C74.1862 12.9038 74.3462 12.5127 74.3462 12.4635C74.3462 12.3369 74.3141 12.3408 70.9844 12.8752ZM101.259 14.3787C100.965 14.5251 100.608 14.7978 100.466 14.9845C100.207 15.3241 99.5945 16.6825 99.4679 17.1984L99.4009 17.4722L103.839 17.4832L108.277 17.4942L108.499 17.1344C108.622 16.9365 108.707 16.6715 108.689 16.5455C108.626 16.1095 108.311 16.0586 105.665 16.057C104.301 16.0562 103.185 16.0346 103.185 16.0092C103.185 15.8102 103.464 15.4284 103.637 15.3912C103.754 15.366 104.724 15.3299 105.792 15.3109C107.859 15.2742 107.736 15.2985 109.09 14.656C109.448 14.4865 109.523 14.2749 109.261 14.1746C109.172 14.1404 107.456 14.1125 105.446 14.1125H101.793L101.259 14.3787ZM2.02402 14.3723C1.99098 14.4054 2.07863 14.6982 2.21883 15.0228L2.47357 15.6134L2.11943 16.3202C1.92472 16.709 1.73307 17.1309 1.6936 17.2578L1.62201 17.4887L3.31654 17.4624C4.24847 17.4479 5.01106 17.4591 5.01116 17.4872C5.01116 17.5153 6.25224 17.5383 7.76902 17.5383C9.28571 17.5383 10.4476 17.507 10.351 17.4688C10.2083 17.4124 10.2051 17.3979 10.3338 17.3921C10.4209 17.3882 10.5475 17.4402 10.615 17.5077C10.6825 17.5752 10.7378 17.5866 10.7378 17.5332C10.7378 17.4756 11.3151 17.4443 12.1585 17.4562C13.3846 17.4736 13.5995 17.4525 13.7267 17.3028C13.9771 17.0082 14.6535 15.3054 14.6448 14.9918C14.6268 14.341 14.9227 14.3709 8.1969 14.3402C4.83485 14.3249 2.05705 14.3394 2.02402 14.3723ZM15.3103 14.3804C15.2754 14.4154 15.3788 14.7053 15.5401 15.0248L15.8333 15.6056L15.4843 16.3972C15.1057 17.2555 15.0543 17.5118 15.2782 17.4258C15.3568 17.3957 15.4516 17.4201 15.4888 17.4803C15.5504 17.5801 15.3626 17.6344 15.0731 17.6004C15.0108 17.5932 14.8151 17.881 14.6384 18.2401C14.2802 18.9678 14.2089 19.7417 14.4663 20.1093C14.7684 20.5405 14.9862 20.5594 19.328 20.531L23.4697 20.504L23.796 19.8393C23.9755 19.4737 24.2676 18.8064 24.4453 18.3565C24.6229 17.9065 25.1094 16.8559 25.5262 16.0219C25.943 15.1878 26.2578 14.463 26.2258 14.4112C26.1362 14.2662 24.4078 14.295 24.2049 14.4448C24.0218 14.5799 22.8012 17.2847 22.8698 17.4029C22.8919 17.441 23.3005 17.464 23.7779 17.4541C24.2552 17.4442 24.6457 17.4734 24.6457 17.5189C24.6457 17.5645 24.22 17.5909 23.6998 17.5776L22.7538 17.5534L22.3147 18.3896L21.8756 19.2257H19.528C18.2368 19.2257 17.1804 19.1899 17.1804 19.146C17.1804 19.1023 17.3159 18.7456 17.4815 18.3535L17.7826 17.6406L16.6889 17.5842L15.5953 17.5276L16.5668 17.4912C17.1012 17.4712 17.6127 17.4604 17.7036 17.4674C17.8198 17.4762 18.0702 17.0567 18.5473 16.0541C18.9204 15.2699 19.2257 14.5583 19.2257 14.4727C19.2257 14.3388 18.9557 14.317 17.2998 14.317C16.2404 14.317 15.3452 14.3455 15.3103 14.3804ZM27.214 14.501C27.0252 14.6022 26.7567 14.8783 26.6172 15.1146L26.3634 15.5442H28.1123C29.222 15.5442 29.8612 15.5819 29.8612 15.6475C29.8612 15.7043 29.6771 16.1236 29.4521 16.5792C29.2272 17.0348 29.0431 17.4305 29.0431 17.4585C29.0431 17.4865 29.1581 17.4805 29.2987 17.4452C29.4462 17.4083 29.5544 17.4251 29.5544 17.4853C29.5544 17.5425 29.4217 17.5895 29.2594 17.5895C29.0649 17.5895 28.9122 17.6691 28.811 17.8233C28.5914 18.1586 27.4068 20.4055 27.4068 20.4869C27.4068 20.5245 28.2066 20.5551 29.184 20.5551C30.4864 20.5551 30.9866 20.521 31.0567 20.4273C31.2102 20.222 32.0087 18.01 32.0087 17.79C32.0087 17.6023 31.9327 17.5895 30.8156 17.5895C30.1595 17.5895 29.642 17.57 29.6658 17.5463C29.6895 17.5225 30.2379 17.4913 30.8845 17.4768C32.2294 17.4467 32.1504 17.4965 32.5829 16.4058C32.7373 16.0162 32.9129 15.6637 32.973 15.6224C33.0332 15.5811 33.7333 15.5466 34.5288 15.5457C36.122 15.544 36.0993 15.5537 36.0993 14.8747C36.0993 14.6373 36.0372 14.4955 35.9015 14.4229C35.7746 14.355 34.2427 14.317 31.6304 14.317C27.9036 14.317 27.5278 14.3327 27.214 14.501ZM38.7729 14.4342C38.2764 14.5771 37.6637 15.0107 37.4348 15.381C37.3258 15.5574 37.076 16.0768 36.8798 16.5352C36.6112 17.1629 36.5562 17.3814 36.6572 17.4202C36.731 17.4484 37.4256 17.4637 38.2006 17.4539L39.6101 17.4361L40.0392 16.5732C40.2751 16.0986 40.5552 15.6761 40.6614 15.6344C40.938 15.5259 42.6677 15.5298 42.8408 15.6394C42.9617 15.7159 42.9297 15.8611 42.6512 16.4996C42.3461 17.1994 42.3041 17.5831 42.549 17.4317C42.6014 17.3994 42.6442 17.4184 42.6442 17.474C42.6442 17.5298 42.5407 17.59 42.4141 17.6079C42.2434 17.6322 42.0841 17.8376 41.7966 18.404C41.5834 18.8239 41.3534 19.2028 41.2852 19.2462C41.2171 19.2894 40.6613 19.3255 40.0501 19.3264C38.7713 19.3282 38.8204 19.399 39.306 18.2542L39.5664 17.6406L38.2674 17.5895C37.5531 17.5613 36.9398 17.5778 36.9047 17.626C36.8695 17.6741 36.8091 17.6625 36.7706 17.6001C36.6228 17.3609 36.3279 17.7039 35.9123 18.5983C35.4214 19.6548 35.3662 20.153 35.7131 20.3959C36.0649 20.6424 42.5871 20.6318 43.3154 20.3837C44.0517 20.1329 44.7668 19.3703 45.1687 18.4076L45.489 17.6406L44.0922 17.5851L42.6954 17.5295L43.9992 17.5084C44.9619 17.4927 45.3035 17.4538 45.3046 17.3594C45.3059 17.2653 45.3295 17.2682 45.3941 17.3703C45.5024 17.5411 45.5001 17.5446 46.0893 16.3341C46.6557 15.1703 46.6713 14.7072 46.1535 14.4346C45.8742 14.2876 39.2836 14.2873 38.7729 14.4342ZM47.4507 14.4291C47.4507 14.4907 47.5283 14.6725 47.6231 14.8329C47.7895 15.1147 47.7856 15.147 47.5092 15.7691C47.3518 16.1235 47.1381 16.6271 47.0347 16.8881L46.8463 17.3629L47.1229 17.417C47.2751 17.4467 47.8483 17.4632 48.3967 17.4536C48.9451 17.4439 49.3938 17.4763 49.3938 17.5253C49.3937 17.5743 49.4554 17.5633 49.5309 17.5006C49.6064 17.438 49.6917 17.4103 49.7205 17.439C49.7687 17.4872 50.0636 16.8788 50.4533 15.9277L50.6104 15.5442H52.297C53.2246 15.5442 54.0057 15.5802 54.0329 15.6242C54.0601 15.668 53.9061 16.0789 53.6907 16.5372C53.4754 16.9953 53.3254 17.3966 53.3575 17.4287C53.4372 17.5084 55.88 17.5033 56.0891 17.423C56.1812 17.3877 56.4615 16.9505 56.7121 16.4515L57.1678 15.5442H58.9053C60.0502 15.5442 60.6428 15.5808 60.6428 15.6516C60.6428 15.7106 60.5687 15.9021 60.4781 16.0772C60.3876 16.2524 60.2275 16.6458 60.1222 16.9515C59.9632 17.4139 59.9565 17.4977 60.0824 17.4495C60.1656 17.4175 60.2337 17.436 60.2337 17.4904C60.2337 17.5449 60.1435 17.5895 60.0334 17.5895C59.8787 17.5895 59.6804 17.8946 59.1641 18.9259C58.7962 19.6608 58.4952 20.3293 58.4952 20.4113C58.4952 20.5367 58.7568 20.5558 60.1546 20.5321L61.8139 20.504L62.2988 19.2257C62.5656 18.5226 62.7853 17.8668 62.7871 17.7684C62.79 17.6091 62.6722 17.5895 61.7165 17.5895C61.126 17.5895 60.6428 17.555 60.6427 17.5128C60.6427 17.4705 61.0798 17.4444 61.6142 17.4546C62.3026 17.4677 62.5862 17.4378 62.5873 17.3523C62.5882 17.2805 62.6305 17.2937 62.6915 17.3849C62.7797 17.5169 62.8117 17.5097 62.92 17.3338C63.2037 16.8732 64.1244 14.5787 64.076 14.4528C64.0333 14.3415 62.5305 14.317 55.7372 14.317C49.7985 14.317 47.4507 14.3487 47.4507 14.4291ZM66.8551 14.461C66.3027 14.6609 65.7984 15.0775 65.5073 15.5743C65.141 16.1993 64.7203 17.3649 64.8354 17.436C64.8888 17.4689 65.5798 17.4894 66.3709 17.4814L67.8093 17.467L68.26 16.5698C68.5078 16.0763 68.7859 15.6437 68.8779 15.6084C68.9698 15.573 69.48 15.5442 70.0115 15.5442C70.7688 15.5442 70.9904 15.5768 71.0358 15.6949C71.0676 15.7779 70.9741 16.1585 70.828 16.5409C70.6819 16.9231 70.5624 17.2845 70.5624 17.3439C70.5624 17.4132 71.0307 17.4599 71.8619 17.4738C72.5766 17.4858 73.1825 17.5167 73.2084 17.5425C73.2343 17.5683 72.6105 17.5895 71.8223 17.5895H70.3893L70.0095 18.3279C69.8005 18.734 69.5808 19.1252 69.521 19.1972C69.4451 19.2887 69.0789 19.328 68.3001 19.328C67.0179 19.328 67.048 19.3609 67.4433 18.388C67.584 18.0419 67.699 17.7195 67.699 17.6715C67.699 17.6234 67.0009 17.5968 66.1479 17.6124L64.5966 17.6406L64.1503 18.5394C63.5762 19.6955 63.5325 19.9198 63.8123 20.2755L64.0323 20.5551L67.5786 20.5529C71.5001 20.5504 71.5065 20.5495 72.3968 19.8443C72.7748 19.545 73.2933 18.6905 73.5168 17.9985C73.5803 17.8017 73.8851 17.1382 74.1938 16.5241C74.8083 15.302 74.8839 14.8743 74.5401 14.563C74.3383 14.3803 74.1044 14.3667 70.7819 14.3451C68.0073 14.3271 67.1556 14.3522 66.8551 14.461ZM76.0092 14.4006C75.9101 14.4635 75.9051 14.8458 75.9862 16.163C76.0432 17.0882 76.1231 18.4434 76.1639 19.1746L76.2381 20.504L77.5675 20.5335C78.2987 20.5497 78.9955 20.5386 79.116 20.5088C79.3323 20.4552 81.986 18.0267 82.1516 17.7308C82.2254 17.599 82.0796 17.5806 81.0825 17.5965C80.4476 17.6066 79.9146 17.5746 79.8981 17.5255C79.8816 17.4763 80.386 17.4497 81.0188 17.4663C81.9728 17.4915 82.2266 17.4653 82.5039 17.3129C83.023 17.0279 85.8058 14.4867 85.707 14.3879C85.6589 14.3397 85.0224 14.3156 84.2927 14.3342L82.9659 14.3681L82.5166 14.767C81.8684 15.342 80.1182 17.0413 79.8974 17.3098C79.7941 17.4355 79.5629 17.642 79.3837 17.7687C79.0606 17.9972 79.0569 17.9974 78.9483 17.7943C78.8472 17.6055 78.7346 17.5895 77.5128 17.5895C76.7836 17.5895 76.1869 17.555 76.1868 17.5128C76.1866 17.3956 78.7815 17.4202 78.8797 17.5383C78.9747 17.6527 78.8887 14.5714 78.7925 14.4159C78.7197 14.298 76.1927 14.2841 76.0092 14.4006ZM86.7944 14.4619C86.7097 14.5466 86.4234 15.1354 86.1581 15.7703C85.8928 16.4053 85.3124 17.6611 84.8683 18.561C84.4242 19.4609 84.061 20.2778 84.0611 20.3762C84.0613 20.5438 84.3298 20.555 88.2797 20.5536C90.7852 20.5527 92.5604 20.5123 92.6515 20.4542C92.9088 20.2902 92.6546 20.0255 91.84 19.6092L91.0896 19.2257H89.3139C88.3374 19.2257 87.5383 19.207 87.5383 19.1841C87.5383 19.1612 87.6763 18.8348 87.8451 18.4587C88.0138 18.0826 88.1519 17.7306 88.1519 17.6765C88.1519 17.6169 87.6275 17.5904 86.8222 17.6093C86.0909 17.6265 85.5059 17.6009 85.5222 17.5523C85.5385 17.5039 87.0227 17.4572 88.8205 17.4489C92.0804 17.4335 92.0908 17.4328 92.7538 17.1688C93.129 17.0193 93.4185 16.8418 93.4185 16.761C93.4185 16.6434 93.0041 16.6131 91.092 16.5905C89.5951 16.5728 88.7655 16.5257 88.7655 16.4585C88.7655 16.4012 88.8584 16.1719 88.972 15.9492L89.1787 15.5442H91.123C93.0436 15.5442 93.0769 15.5404 93.8726 15.2336C94.3156 15.0627 94.7355 14.8537 94.8058 14.769C95.1117 14.4005 94.8226 14.3692 90.8176 14.338C87.4804 14.312 86.9273 14.3291 86.7944 14.4619ZM95.914 14.4187C95.7819 14.496 95.7655 14.6076 95.8277 15.0036C95.8887 15.3913 95.862 15.5888 95.6997 15.9532C95.587 16.2063 95.4081 16.6596 95.3023 16.9604C95.1428 17.414 95.1358 17.4976 95.2613 17.4495C95.3445 17.4175 95.4126 17.436 95.4126 17.4904C95.4126 17.5449 95.3224 17.5895 95.2123 17.5895C95.0577 17.5895 94.8593 17.8946 94.3431 18.9259C93.9751 19.6608 93.6741 20.3281 93.6741 20.4087C93.6741 20.5289 93.9323 20.5551 95.1108 20.5551H96.5475L97.0428 19.4942C97.3153 18.9108 97.5704 18.324 97.6098 18.1904C97.6492 18.0567 98.0499 17.1989 98.5003 16.284C98.9508 15.3691 99.2932 14.5523 99.2611 14.4688C99.213 14.3436 98.9296 14.3175 97.6401 14.3201C96.7806 14.3218 96.0038 14.3662 95.914 14.4187ZM5.44466 15.672C5.25966 15.9024 4.80642 16.8632 4.80642 17.0252C4.80642 17.1651 5.1576 17.1803 7.83478 17.1564L10.8632 17.1293L11.1476 16.4134C11.3041 16.0197 11.4113 15.6631 11.3857 15.6209C11.3601 15.5786 10.0361 15.5442 8.44325 15.5442C6.24948 15.5442 5.52248 15.5752 5.44466 15.672ZM60.4042 17.4532C60.3666 17.4906 60.336 17.5688 60.336 17.627C60.336 17.691 60.3836 17.685 60.4569 17.6117C60.5235 17.5451 60.5542 17.4669 60.5252 17.4378C60.4961 17.4088 60.4416 17.4156 60.4042 17.4532ZM73.3235 17.4872C73.3235 17.5435 73.3723 17.5895 73.4318 17.5895C73.4914 17.5895 73.5117 17.5435 73.4769 17.4872C73.4422 17.431 73.3935 17.3849 73.3686 17.3849C73.3438 17.3849 73.3235 17.431 73.3235 17.4872ZM95.566 17.4872C95.5313 17.5435 95.5516 17.5895 95.6111 17.5895C95.6707 17.5895 95.7194 17.5435 95.7194 17.4872C95.7194 17.431 95.6992 17.3849 95.6743 17.3849C95.6495 17.3849 95.6008 17.431 95.566 17.4872ZM95.8217 17.5128C95.8217 17.555 96.2589 17.5895 96.7932 17.5895C97.3275 17.5895 97.7647 17.555 97.7647 17.5128C97.7647 17.4705 97.3275 17.4361 96.7932 17.4361C96.2589 17.4361 95.8217 17.4705 95.8217 17.5128ZM13.3966 17.5579C13.3966 17.6034 12.7666 17.6318 11.9965 17.6211L10.5964 17.6016L10.0024 18.9372C9.67564 19.6718 9.40832 20.3364 9.40832 20.414C9.40832 20.6131 12.3964 20.6212 12.5612 20.4225C12.7074 20.2465 13.6012 17.9552 13.6012 17.7567C13.6012 17.6714 13.5551 17.5731 13.4989 17.5383C13.4427 17.5036 13.3966 17.5124 13.3966 17.5579ZM1.34897 17.8707C1.15446 18.1457 0 20.3979 0 20.5023C0 20.5314 0.707669 20.5551 1.57262 20.5551C2.71123 20.5551 3.17163 20.5199 3.24117 20.4273C3.32329 20.3181 3.88768 19.0578 4.36321 17.9218L4.50239 17.5895H3.02518H1.54787L1.34897 17.8707ZM46.7013 17.7399C46.5092 17.932 45.4054 20.2063 45.4054 20.4099C45.4054 20.5292 45.6889 20.5551 46.9878 20.5551H48.5704L48.7139 20.2739C48.8473 20.0126 49.7005 17.7442 49.7005 17.6508C49.7005 17.6277 49.0612 17.6029 48.2798 17.5955C47.1225 17.5846 46.8298 17.6113 46.7013 17.7399ZM52.7503 18.4332C52.2214 19.4723 51.7458 20.4572 51.7458 20.5132C51.7458 20.5362 52.4563 20.5551 53.3248 20.5551C54.4764 20.5551 54.926 20.5206 54.9855 20.4273C55.1098 20.2324 56.1431 17.7783 56.1431 17.6777C56.1431 17.6292 55.4764 17.5895 54.6614 17.5895H53.1797L52.7503 18.4332ZM99.2169 17.7122C99.0377 17.8914 99.0665 18.0788 99.2919 18.1995C99.4132 18.2643 100.482 18.3053 102.053 18.3053C103.463 18.3053 104.616 18.3306 104.616 18.3616C104.616 18.3925 104.546 18.5535 104.46 18.7195L104.304 19.0212H101.441H98.5784L98.4601 19.2809C98.3047 19.622 98.4539 20.0486 98.7891 20.2219C98.9841 20.3226 99.8376 20.3468 102.469 20.3263L105.895 20.2995L106.476 20.0142C107.289 19.6147 107.931 18.8188 108.202 17.8736L108.284 17.5895H103.812C100.47 17.5895 99.3086 17.6205 99.2169 17.7122Z" fill="black"/>
</g>
</svg>
