<svg width="66.6449" height="32.5226" viewBox="0 0 66.6449 32.5226" fill="none" xmlns="http://www.w3.org/2000/svg">
<g id="Group 1171274976">
<g id="Group">
<path id="Vector" d="M0 30.1635C2.18571 30.2014 4.371 30.2398 6.55672 30.2777C14.2999 22.3218 22.0434 14.3655 29.7866 6.40964L34.572 12.2975L37.2983 9.68715L30.0475 0L0 30.1635Z" fill="black"/>
<path id="Vector_2" d="M16.6631 32.1494C18.6382 32.207 20.6137 32.2641 22.5889 32.3217C29.6601 24.6774 36.7318 17.0332 43.8031 9.38892L53.0917 21.7878L55.528 19.0471L44.1514 3.18945L16.6631 32.1494Z" fill="black"/>
</g>
<path id="Vector_3" d="M30.4922 32.0873H36.1967L43.3805 24.2845L47.1001 29.031L44.3593 32.2612H49.5037L56.0838 24.7022L61.8157 32.5226H66.6449L56.3234 18.4921L49.7974 25.9207L43.5545 17.709L30.4922 32.0873Z" fill="black"/>
</g>
</svg>
